# AST/ASF file generated using VICON BodyLanguage
# -----------------------------------------------
:version 1.10
:name VICON
:units
  mass 1.0
  length 0.45
  angle deg
:documentation
   .ast/.asf automatically generated from VICON data using
   VICON BodyBuilder and BodyLanguage model FoxedUp or BRILLIANT.MOD
:root
   order TX TY TZ RX RY RZ
   axis XYZ
   position 0 0 0  
   orientation 0 0 0 
:bonedata
  begin
     id 1 
     name lhipjoint
     direction 0.522423 -0.726805 0.445902 
     length 2.25074 
     axis 0 0 0  XYZ
  end
  begin
     id 2 
     name lfemur
     direction 0.34202 -0.939693 0  
     length 6.54609  
     axis 0 0 20  XYZ
    dof rx ry rz
    limits (-160.0 20.0)
           (-70.0 70.0)
           (-60.0 70.0)
  end
  begin
     id 3 
     name ltibia
     direction 0.34202 -0.939693 0   
     length 7.7528   
     axis 0 0 20   XYZ
    dof rx
    limits (-10.0 170.0)
  end
  begin
     id 4 
     name lfoot
     direction 0.143696 -0.394801 0.90746   
     length 1.73269   
     axis -90 7.62852e-016 20   XYZ
    dof rx rz
    limits (-45.0 90.0)
           (-70.0 20.0)
  end
  begin
     id 5 
     name ltoes
     direction 1.53633e-011 -4.21912e-011 1   
     length 0.858383   
     axis -90 7.62852e-016 20   XYZ
    dof rx
    limits (-90.0 20.0)
  end
  begin
     id 6 
     name rhipjoint
     direction -0.515943 -0.73016 0.447961   
     length 2.2404  
     axis 0 0 0  XYZ 
  end
  begin
     id 7 
     name rfemur
     direction -0.34202 -0.939693 0   
     length 6.84377   
     axis 0 0 -20   XYZ
    dof rx ry rz
    limits (-160.0 20.0)
           (-70.0 70.0)
           (-70.0 60.0)
  end
  begin
     id 8 
     name rtibia
     direction -0.34202 -0.939693 0   
     length 7.57596   
     axis 0 0 -20   XYZ
    dof rx
    limits (-10.0 170.0)
 end
 begin
     id 9 
     name rfoot
     direction -0.0999372 -0.274575 0.956358   
     length 1.78783  
     axis -90 -7.62852e-016 -20   XYZ
    dof rx rz
    limits (-45.0 90.0)
           (-20.0 70.0)
  end
  begin
     id 10 
     name rtoes
     direction -1.53535e-011 -4.21895e-011 1   
     length 0.898614   
     axis -90 -7.62852e-016 -20   XYZ
    dof rx
    limits (-90.0 20.0)
  end
  begin
     id 11 
     name lowerback
     direction -0.011775 0.996164 -0.0867116   
     length 1.91499   
     axis 0 0 0   XYZ
    dof rx ry rz
    limits (-20.0 45.0)
           (-30.0 30.0)
           (-30.0 30.0)
  end
  begin
     id 12 
     name upperback
     direction -0.00189771 0.999673 -0.0254833   
     length 1.92213   
     axis 0 0 0   XYZ
    dof rx ry rz
    limits (-20.0 45.0)
           (-30.0 30.0)
           (-30.0 30.0)
  end
  begin
     id 13 
     name thorax
     direction 0.00335995 0.999878 0.0152401   
     length 1.93138   
     axis 0 0 0   XYZ
    dof rx ry rz
    limits (-20.0 45.0)
           (-30.0 30.0)
           (-30.0 30.0)
  end
  begin
     id 14 
     name lowerneck
     direction 0.00233191 0.998509 0.0545404   
     length 1.59408   
     axis 0 0 0   XYZ
    dof rx ry rz
    limits (-20.0 45.0)
           (-30.0 30.0)
           (-30.0 30.0)
  end
  begin
     id 15 
     name upperneck
     direction 0.07881 0.9956 -0.0506934   
     length 1.59344   
     axis 0 0 0   XYZ
    dof rx ry rz
    limits (-20.0 45.0)
           (-30.0 30.0)
           (-30.0 30.0)
  end
  begin
     id 16
     name head
     direction 0.0261681 0.999378 -0.0236299  
     length 1.60935  
     axis 0 0 0   XYZ
    dof rx ry rz
    limits (-20.0 45.0)
           (-30.0 30.0)
           (-30.0 30.0)
  end
  begin
     id 17 
     name lclavicle
     direction 0.96643 0.252035 0.0499195  
     length 3.82153  
     axis 0 0 0   XYZ
    dof ry rz
    limits (-20.0 10.0)
           (0.0 20.0)
  end
  begin
     id 18 
     name lhumerus
     direction 1 -4.48967e-011 -2.01614e-018   
     length 4.87796   
     axis 180 -30 -90   XYZ
    dof rx ry rz
    limits (-60.0 90.0)
           (-90.0 90.0)
           (-90.0 90.0)
  end
  begin
     id 19
     name lradius
     direction 1 -4.48958e-011 3.1409e-027   
     length 3.23169   
     axis 180 -30 -90   XYZ
    dof rx
    limits (-10.0 170.0)
  end
  begin
     id 20
     name lwrist
     direction 1 -4.48924e-011 1.0365e-027   
     length 1.61584   
     axis -2.56395e-016 90 90   XYZ
    dof ry
    limits (-180.0 0.0)
 end
  begin
     id 21 
     name lhand
     direction 1 -4.49055e-011 2.09488e-027   
     length 0.731324   
     axis -1.32723e-015 90 90   XYZ
    dof rx rz
    limits (-90.0 90.0)
           (-45.0 45.0)
  end
  begin
     id 22 
     name lfingers
     direction 1 -4.48935e-011 4.14981e-027   
     length 0.589612   
     axis -2.6545e-015 90 90   XYZ
    dof rx
    limits (0.0 90.0)
  end
  begin
     id 23
     name lthumb
     direction 0.707107 -6.35097e-011 0.707107   
     length 0.846569   
     axis -90 45 5.05613e-014   XYZ
    dof rx rz
    limits (-45.0 45.0)
           (-45.0 45.0)
  end
  begin
     id 24 
     name rclavicle
     direction -0.979337 0.201016 0.0221522   
     length 3.73827  
     axis 0 0 0   XYZ 
    dof ry rz
    limits (-10.0 20.0)
           (-20.0 0.0)
  end
  begin
     id 25 
     name rhumerus
     direction -1 -4.48971e-011 1.65907e-027  
     length 4.9143   
     axis 180 30 90   XYZ
    dof rx ry rz
    limits (-90.0 60.0)
           (-90.0 90.0)
           (-90.0 90.0)
  end
  begin
     id 26 
     name rradius
     direction -1 -4.4894e-011 2.17871e-028   
     length 3.29093   
     axis 180 30 90   XYZ
    dof rx
    limits (-10.0 170.0)
  end
  begin
     id 27 
     name rwrist
     direction -1 -4.48971e-011 1.04038e-027   
     length 1.64546   
     axis -2.56395e-016 -90 -90   XYZ
    dof ry
    limits (-180.0 0.0)
  end
  begin
     id 28
     name rhand
     direction -1 -4.49017e-011 2.08843e-027   
     length 0.54512   
     axis -1.32723e-015 -90 -90   XYZ
    dof rx rz
    limits (-90.0 90.0)
           (-45.0 45.0)
  end
  begin
     id 29
     name rfingers
     direction -1 -4.48918e-011 4.1439e-027   
     length 0.43949   
     axis -2.6545e-015 -90 -90   XYZ
    dof rx
    limits (0.0 90.0)
  end
  begin
     id 30
     name rthumb
     direction -0.707107 -6.35065e-011 0.707107   
     length 0.631022   
     axis -90 -45 -5.05613e-014   XYZ
    dof rx rz
    limits (-45.0 45.0)
           (-45.0 45.0)
  end
:hierarchy
  begin
    root lhipjoint rhipjoint lowerback
    lhipjoint lfemur
    lfemur ltibia
    ltibia lfoot
    lfoot ltoes
    rhipjoint rfemur
    rfemur rtibia
    rtibia rfoot
    rfoot rtoes
    lowerback upperback
    upperback thorax
    thorax lowerneck lclavicle rclavicle
    lowerneck upperneck
    upperneck head
    lclavicle lhumerus
    lhumerus lradius
    lradius lwrist
    lwrist lhand lthumb
    lhand lfingers
    rclavicle rhumerus
    rhumerus rradius
    rradius rwrist
    rwrist rhand rthumb
    rhand rfingers
  end

#!OML:ASF H:\BreakDance\Project 1\Capture day 1\Session 1\Male.ASF
:FULLY-SPECIFIED
:DEGREES
1221
root -20.3885 15.6105 -9.04496 409.169 -42.5071 359.561
lowerback 25.0004 3.37699 -1.46865
upperback 11.6365 3.50816 0.886384
thorax -1.17031 1.46314 0.910519
lowerneck -8.31859 -0.0736225 4.1163
upperneck -8.72067 -0.348933 3.21227
head -1.33036 -0.391458 0.313908
rclavicle 1.59028e-015 -1.92821e-014
rhumerus 41.506 14.9981 -72.6288
rradius 34.3576
rwrist 6.97307
rhand -7.99428 -10.4013
rfingers 7.12502
rthumb 17.9143 -1119.6
lclavicle 1.59028e-015 -1.92821e-014
lhumerus 70.6534 -41.1177 9.46657
lradius 71.4792
lwrist 20.4498
lhand -23.7662 -391.568
lfingers 7.12502
lthumb 2.70318 -1.60499
rfemur -93.936 6.73062 -5.65571
rtibia 47.6576
rfoot -19.0545 15.8501
rtoes 30.8515
lfemur -77.3569 -4.4581 -34.2441
ltibia 54.0962
lfoot -26.8528 -12.4782
ltoes -3.88104
1222
root -20.4531 15.6286 -9.15487 407.051 -40.1433 360.826
lowerback 24.6959 3.18396 -1.29502
upperback 11.5222 3.35326 0.960319
thorax -1.1429 1.4082 0.939484
lowerneck -8.41079 -0.38188 3.72442
upperneck -8.96061 -0.719834 3.44265
head -1.38993 -0.574079 0.445551
rclavicle -5.24792e-014 9.26337e-014
rhumerus 41.4627 15.798 -72.5304
rradius 35.2224
rwrist 7.21619
rhand -5.51754 -11.7049
rfingers 7.12502
rthumb 20.2961 -1120.66
lclavicle -5.24792e-014 9.26337e-014
lhumerus 70.1559 -42.9913 9.01723
lradius 73.0685
lwrist 18.424
lhand -26.9169 -393.255
lfingers 7.12502
lthumb -0.339818 -3.27599
rfemur -92.9262 7.28343 -5.75304
rtibia 48.3259
rfoot -18.4967 17.0993
rtoes 32.7264
lfemur -75.8618 -4.00421 -35.4028
ltibia 54.0592
lfoot -27.0757 -12.8351
ltoes -6.33644
1223
root -20.5207 15.6528 -9.2548 405.152 -37.7261 361.862
lowerback 24.4058 2.96013 -1.0423
upperback 11.4098 3.17125 1.02487
thorax -1.11441 1.34205 0.918771
lowerneck -8.42228 -0.690963 3.36605
upperneck -9.20911 -1.08958 3.65391
head -1.46384 -0.75732 0.567124
rclavicle -3.49861e-014 1.16885e-013
rhumerus 41.3578 16.8911 -72.184
rradius 36.3567
rwrist 6.1379
rhand -3.17362 -14.1226
rfingers 7.12502
rthumb 22.5473 -1122.83
lclavicle -3.49861e-014 1.16885e-013
lhumerus 69.3655 -44.6902 8.87597
lradius 74.5356
lwrist 16.3286
lhand -30.632 -394.176
lfingers 7.12502
lthumb -3.92775 -4.23289
rfemur -91.7731 7.85514 -5.74922
rtibia 48.8091
rfoot -18.1348 17.9616
rtoes 34.6881
lfemur -74.2476 -3.2812 -36.7423
ltibia 53.8325
lfoot -27.4715 -12.5785
ltoes -9.48728
1224
root -20.5892 15.6822 -9.34543 403.471 -35.1872 362.756
lowerback 24.0658 2.67495 -0.667014
upperback 11.2743 2.93638 1.09792
thorax -1.08095 1.25424 0.850508
lowerneck -8.36401 -1.00126 3.06168
upperneck -9.43375 -1.46348 3.83144
head -1.54051 -0.943346 0.670664
rclavicle 6.36111e-014 -3.99557e-014
rhumerus 41.1271 18.2712 -71.5928
rradius 37.6549
rwrist 4.16544
rhand -2.14284 -17.2599
rfingers 7.12502
rthumb 23.5364 -1125.84
lclavicle 6.36111e-014 -3.99557e-014
lhumerus 68.253 -46.2739 9.13618
lradius 75.8839
lwrist 14.6236
lhand -34.4862 -393.991
lfingers 7.12502
lthumb -7.64886 -4.14899
rfemur -90.4933 8.33034 -5.65437
rtibia 49.0841
rfoot -18.0485 18.4123
rtoes 36.3496
lfemur -72.5584 -2.47094 -38.1362
ltibia 53.3976
lfoot -27.9454 -11.7215
ltoes -13.0706
1225
root -20.6602 15.7172 -9.4269 401.978 -32.5438 363.52
lowerback 23.6885 2.36087 -0.220684
upperback 11.104 2.67778 1.19689
thorax -1.06598 1.15638 0.773894
lowerneck -8.25549 -1.3203 2.84336
upperneck -9.5854 -1.8582 3.95594
head -1.60173 -1.1399 0.743966
rclavicle 2.8625e-014 5.96354e-015
rhumerus 40.7023 19.785 -70.902
rradius 38.9225
rwrist 2.07514
rhand -2.55772 -19.8675
rfingers 7.12502
rthumb 23.1384 -1128.5
lclavicle 2.8625e-014 5.96354e-015
lhumerus 66.8418 -47.7981 9.811
lradius 77.1187
lwrist 13.7315
lhand -37.9749 -392.801
lfingers 7.12502
lthumb -11.015 -3.1101
rfemur -89.1095 8.74992 -5.56506
rtibia 49.1566
rfoot -18.1675 18.5715
rtoes 37.8682
lfemur -70.794 -1.43261 -39.6781
ltibia 52.7673
lfoot -28.4984 -10.5432
ltoes -16.6823
1226
root -20.7341 15.7529 -9.49983 400.656 -29.7565 364.205
lowerback 23.2732 1.99038 0.291295
upperback 10.8853 2.35878 1.30377
thorax -1.0835 1.03091 0.680489
lowerneck -8.16427 -1.63436 2.74217
upperneck -9.59825 -2.26074 4.06162
head -1.6159 -1.33964 0.790738
rclavicle -3.33958e-014 -1.59028e-014
rhumerus 40.0689 21.3299 -70.3118
rradius 40.0082
rwrist 0.460357
rhand -4.0578 -20.9644
rfingers 7.12502
rthumb 21.6985 -1129.77
lclavicle -3.33958e-014 -1.59028e-014
lhumerus 65.1369 -49.2687 10.8452
lradius 78.2193
lwrist 13.8255
lhand -40.6875 -391.213
lfingers 7.12502
lthumb -13.6305 -1.67909
rfemur -87.6822 9.12658 -5.62973
rtibia 49.0694
rfoot -18.3729 18.5757
rtoes 39.5246
lfemur -68.981 -0.333547 -41.2043
ltibia 51.9858
lfoot -29.0797 -9.21482
ltoes -19.3654
1227
root -20.8113 15.7876 -9.56414 399.496 -26.8375 364.803
lowerback 22.8286 1.56012 0.865442
upperback 10.6213 1.97114 1.38654
thorax -1.13424 0.873711 0.538966
lowerneck -8.16399 -1.93509 2.74289
upperneck -9.43508 -2.65868 4.22693
head -1.55862 -1.53519 0.835828
rclavicle -3.49861e-014 -3.81667e-014
rhumerus 39.2362 22.8562 -69.9512
rradius 40.7824
rwrist 0.0768305
rhand -6.28676 -19.8637
rfingers 7.12502
rthumb 19.5567 -1128.9
lclavicle -3.49861e-014 -3.81667e-014
lhumerus 63.1505 -50.6554 12.1543
lradius 79.1704
lwrist 14.7504
lhand -42.3998 -389.963
lfingers 7.12502
lthumb -15.2803 -0.547627
rfemur -86.2625 9.56709 -5.9935
rtibia 48.8586
rfoot -18.7823 18.4761
rtoes 40.4558
lfemur -67.1694 0.806241 -42.6369
ltibia 51.1219
lfoot -29.6777 -7.77827
ltoes -20.9958
1228
root -20.8907 15.819 -9.62056 398.477 -23.7922 365.326
lowerback 22.3571 1.07015 1.51297
upperback 10.3255 1.51443 1.44094
thorax -1.20629 0.684023 0.338016
lowerneck -8.30023 -2.24232 2.7142
upperneck -9.09005 -3.06717 4.56512
head -1.4175 -1.73008 0.934081
rclavicle 1.90833e-014 -4.77083e-014
rhumerus 38.2524 24.3361 -69.8275
rradius 41.2811
rwrist 1.07324
rhand -8.81725 -17.1313
rfingers 7.12502
rthumb 17.1223 -1126.4
lclavicle 1.90833e-014 -4.77083e-014
lhumerus 60.9249 -51.9184 13.6844
lradius 79.9488
lwrist 16.1348
lhand -43.0207 -389.758
lfingers 7.12502
lthumb -15.8783 -0.388987
rfemur -84.8888 10.1408 -6.71005
rtibia 48.5729
rfoot -19.3517 18.3142
rtoes 40.9035
lfemur -65.3788 1.94215 -43.9002
ltibia 50.2431
lfoot -30.2955 -6.2875
ltoes -21.3881
1229
root -20.9707 15.8466 -9.66956 397.581 -20.6646 365.785
lowerback 21.8401 0.541146 2.21584
upperback 10.0239 1.00716 1.45416
thorax -1.26569 0.469927 0.0699269
lowerneck -8.59109 -2.57035 2.60888
upperneck -8.57997 -3.5036 5.11877
head -1.19312 -1.93072 1.10507
rclavicle -6.36111e-015 -8.34896e-015
rhumerus 37.1911 25.7859 -69.8905
rradius 41.6411
rwrist 2.80319
rhand -11.4954 -13.9339
rfingers 7.12502
rthumb 14.5432 -1123.4
lclavicle -6.36111e-015 -8.34896e-015
lhumerus 58.544 -53.0292 15.3617
lradius 80.495
lwrist 17.4818
lhand -42.7626 -390.422
lfingers 7.12502
lthumb -15.6298 -1.03335
rfemur -83.5903 10.9174 -7.77726
rtibia 48.241
rfoot -19.996 18.1701
rtoes 41.2809
lfemur -63.6487 3.10667 -44.9724
ltibia 49.415
lfoot -30.9173 -5.12808
ltoes -20.8992
1230
root -21.0489 15.874 -9.71226 396.782 -17.5092 366.179
lowerback 21.2728 0.010165 2.92586
upperback 9.73406 0.48423 1.42936
thorax -1.29425 0.246704 -0.242948
lowerneck -8.95603 -2.93201 2.40929
upperneck -8.00801 -3.97959 5.90416
head -0.928265 -2.14438 1.3601
rclavicle -1.90833e-014 5.96354e-015
rhumerus 36.1043 27.2781 -70.0197
rradius 41.9764
rwrist 4.87839
rhand -14.2886 -11.1871
rfingers 7.12502
rthumb 11.8508 -1120.83
lclavicle -1.90833e-014 5.96354e-015
lhumerus 56.1186 -53.9759 17.0971
lradius 80.7884
lwrist 18.3097
lhand -41.9887 -391.514
lfingers 7.12502
lthumb -14.8843 -2.06871
rfemur -82.3537 11.8909 -9.0453
rtibia 47.8839
rfoot -20.5898 18.1502
rtoes 41.1475
lfemur -62.015 4.29451 -45.7826
ltibia 48.6887
lfoot -31.4911 -4.6342
ltoes -19.6504
